<svg width="24" height="24" viewBox="0 0 24 24" fill="none" xmlns="http://www.w3.org/2000/svg">
<g clip-path="url(#clip0_330_3574)">
<path d="M7.83333 2H5.33333C4.44928 2 3.60143 2.35119 2.97631 2.97631C2.35119 3.60143 2 4.44928 2 5.33333L2 7.83333C2 8.71739 2.35119 9.56524 2.97631 10.1904C3.60143 10.8155 4.44928 11.1667 5.33333 11.1667H7.83333C8.71739 11.1667 9.56524 10.8155 10.1904 10.1904C10.8155 9.56524 11.1667 8.71739 11.1667 7.83333V5.33333C11.1667 4.44928 10.8155 3.60143 10.1904 2.97631C9.56524 2.35119 8.71739 2 7.83333 2V2ZM9.5 7.83333C9.5 8.27536 9.32441 8.69928 9.01184 9.01184C8.69928 9.32441 8.27536 9.5 7.83333 9.5H5.33333C4.89131 9.5 4.46738 9.32441 4.15482 9.01184C3.84226 8.69928 3.66667 8.27536 3.66667 7.83333V5.33333C3.66667 4.89131 3.84226 4.46738 4.15482 4.15482C4.46738 3.84226 4.89131 3.66667 5.33333 3.66667H7.83333C8.27536 3.66667 8.69928 3.84226 9.01184 4.15482C9.32441 4.46738 9.5 4.89131 9.5 5.33333V7.83333Z" fill="#F79C32"/>
<path d="M7.83333 12.8333H5.33333C4.44928 12.8333 3.60143 13.1845 2.97631 13.8096C2.35119 14.4348 2 15.2826 2 16.1667L2 18.6667C2 19.5507 2.35119 20.3986 2.97631 21.0237C3.60143 21.6488 4.44928 22 5.33333 22H7.83333C8.71739 22 9.56524 21.6488 10.1904 21.0237C10.8155 20.3986 11.1667 19.5507 11.1667 18.6667V16.1667C11.1667 15.2826 10.8155 14.4348 10.1904 13.8096C9.56524 13.1845 8.71739 12.8333 7.83333 12.8333ZM9.5 18.6667C9.5 19.1087 9.32441 19.5326 9.01184 19.8452C8.69928 20.1577 8.27536 20.3333 7.83333 20.3333H5.33333C4.89131 20.3333 4.46738 20.1577 4.15482 19.8452C3.84226 19.5326 3.66667 19.1087 3.66667 18.6667V16.1667C3.66667 15.7246 3.84226 15.3007 4.15482 14.9882C4.46738 14.6756 4.89131 14.5 5.33333 14.5H7.83333C8.27536 14.5 8.69928 14.6756 9.01184 14.9882C9.32441 15.3007 9.5 15.7246 9.5 16.1667V18.6667Z" fill="#F79C32"/>
<path d="M20.578 17.8742L18.6672 19.7825V4.19417L20.578 6.10251C20.6554 6.17988 20.7473 6.24124 20.8485 6.28309C20.9496 6.32494 21.058 6.34646 21.1674 6.34643C21.2769 6.34639 21.3853 6.32479 21.4864 6.28287C21.5875 6.24094 21.6794 6.17951 21.7567 6.10209C21.8341 6.02466 21.8955 5.93276 21.9373 5.83162C21.9792 5.73048 22.0007 5.62208 22.0006 5.51263C22.0006 5.40317 21.979 5.29479 21.9371 5.19368C21.8952 5.09257 21.8337 5.00071 21.7563 4.92334L19.6005 2.77084C19.1317 2.30267 18.4963 2.0397 17.8338 2.0397C17.1713 2.0397 16.5359 2.30267 16.0672 2.77084L13.9113 4.92334C13.8339 5.00071 13.7725 5.09257 13.7306 5.19368C13.6886 5.29479 13.667 5.40317 13.667 5.51263C13.667 5.62208 13.6885 5.73048 13.7303 5.83162C13.7722 5.93276 13.8335 6.02466 13.9109 6.10209C13.9883 6.17951 14.0801 6.24094 14.1813 6.28287C14.2824 6.32479 14.3907 6.34639 14.5002 6.34643C14.6097 6.34646 14.718 6.32494 14.8192 6.28309C14.9203 6.24124 15.0122 6.17988 15.0897 6.10251L17.0005 4.19417V19.7825L15.0897 17.8742C15.0122 17.7968 14.9203 17.7354 14.8192 17.6936C14.718 17.6517 14.6097 17.6302 14.5002 17.6303C14.3907 17.6303 14.2824 17.6519 14.1813 17.6938C14.0801 17.7357 13.9883 17.7972 13.9109 17.8746C13.8335 17.952 13.7722 18.0439 13.7303 18.1451C13.6885 18.2462 13.667 18.3546 13.667 18.4641C13.667 18.5735 13.6886 18.6819 13.7306 18.783C13.7725 18.8841 13.8339 18.976 13.9113 19.0533L16.0672 21.2058C16.5359 21.674 17.1713 21.937 17.8338 21.937C18.4963 21.937 19.1317 21.674 19.6005 21.2058L21.7563 19.0533C21.8337 18.976 21.8952 18.8841 21.9371 18.783C21.979 18.6819 22.0006 18.5735 22.0006 18.4641C22.0007 18.3546 21.9792 18.2462 21.9373 18.1451C21.8955 18.0439 21.8341 17.952 21.7567 17.8746C21.6794 17.7972 21.5875 17.7357 21.4864 17.6938C21.3853 17.6519 21.2769 17.6303 21.1674 17.6303C21.058 17.6302 20.9496 17.6517 20.8485 17.6936C20.7473 17.7354 20.6554 17.7968 20.578 17.8742Z" fill="#F79C32"/>
</g>
<defs>
<clipPath id="clip0_330_3574">
<rect width="20" height="20" fill="white" transform="translate(2 2)"/>
</clipPath>
</defs>
</svg>
