<svg width="27" height="26" viewBox="0 0 27 26" fill="none" xmlns="http://www.w3.org/2000/svg">
<path d="M2.86141 5.69663C3.59511 5.69663 4.3288 5.33146 4.91576 4.82022C5.42935 4.30899 5.72283 3.57865 5.72283 2.84832C5.72283 2.04494 5.42935 1.31461 4.91576 0.803371C4.3288 0.292135 3.59511 0 2.86141 0C2.12772 0 1.39402 0.292135 0.807065 0.803371C0.366848 1.38764 0 2.11798 0 2.84832C0 3.57865 0.293478 4.30899 0.807065 4.82022C1.39402 5.33146 2.12772 5.69663 2.86141 5.69663ZM15.481 4.82022C14.9674 5.33146 14.2337 5.69663 13.5 5.69663C12.6929 5.69663 11.9592 5.33146 11.4457 4.82022C10.9321 4.30899 10.6386 3.57865 10.6386 2.84832C10.6386 2.04494 10.9321 1.31461 11.4457 0.803371C11.9592 0.292135 12.7663 0 13.5 0C14.2337 0 14.9674 0.292135 15.481 0.803371C16.0679 1.38764 16.3614 2.11798 16.3614 2.84832C16.3614 3.57865 16.0679 4.30899 15.481 4.82022ZM26.1196 4.82022C25.606 5.33146 24.8723 5.69663 24.1386 5.69663C23.3315 5.69663 22.5978 5.33146 22.0842 4.82022C21.5707 4.30899 21.2772 3.57865 21.2772 2.84832C21.2772 2.04494 21.5707 1.31461 22.0842 0.803371C22.5978 0.292135 23.4049 0 24.1386 0C24.8723 0 25.606 0.292135 26.1196 0.803371C26.6332 1.38764 27 2.11798 27 2.84832C27 3.57865 26.6332 4.30899 26.1196 4.82022ZM4.91576 14.9719C4.3288 15.5562 3.59511 15.8483 2.86141 15.8483C2.12772 15.8483 1.39402 15.5562 0.807065 14.9719C0.366848 14.4607 0 13.7303 0 13C0 12.1966 0.293478 11.4663 0.807065 10.9551C1.39402 10.4438 2.12772 10.1517 2.86141 10.1517C3.59511 10.1517 4.3288 10.4438 4.91576 10.9551C5.42935 11.5393 5.72283 12.2697 5.72283 13C5.72283 13.7303 5.42935 14.4607 4.91576 14.9719ZM15.481 14.9719C14.9674 15.5562 14.2337 15.8483 13.5 15.8483C12.6929 15.8483 11.9592 15.5562 11.4457 14.9719C10.9321 14.4607 10.6386 13.7303 10.6386 13C10.6386 12.1966 10.9321 11.4663 11.4457 10.9551C11.9592 10.4438 12.7663 10.1517 13.5 10.1517C14.2337 10.1517 14.9674 10.4438 15.481 10.9551C16.0679 11.5393 16.3614 12.2697 16.3614 13C16.3614 13.7303 16.0679 14.4607 15.481 14.9719ZM26.1196 14.9719C25.606 15.5562 24.8723 15.8483 24.1386 15.8483C23.3315 15.8483 22.5978 15.5562 22.0842 14.9719C21.5707 14.4607 21.2772 13.7303 21.2772 13C21.2772 12.1966 21.5707 11.4663 22.0842 10.9551C22.5978 10.4438 23.4049 10.1517 24.1386 10.1517C24.8723 10.1517 25.606 10.4438 26.1196 10.9551C26.6332 11.5393 27 12.2697 27 13C27 13.7303 26.6332 14.4607 26.1196 14.9719ZM4.91576 25.1236C4.3288 25.7079 3.59511 26 2.86141 26C2.12772 26 1.39402 25.7079 0.807065 25.1236C0.366848 24.6124 0 23.882 0 23.1517C0 22.4213 0.293478 21.691 0.807065 21.1067C1.39402 20.6685 2.12772 20.3034 2.86141 20.3034C3.59511 20.3034 4.3288 20.5955 4.91576 21.1067C5.42935 21.691 5.72283 22.4213 5.72283 23.1517C5.72283 23.882 5.42935 24.6124 4.91576 25.1236ZM15.481 25.1236C14.9674 25.7079 14.2337 26 13.5 26C12.6929 26 11.9592 25.7079 11.4457 25.1236C10.9321 24.6124 10.6386 23.882 10.6386 23.1517C10.6386 22.4213 10.9321 21.691 11.4457 21.1067C11.9592 20.6685 12.7663 20.3034 13.5 20.3034C14.2337 20.3034 14.9674 20.5955 15.481 21.1067C16.0679 21.691 16.3614 22.4213 16.3614 23.1517C16.3614 23.882 16.0679 24.6124 15.481 25.1236ZM26.1196 25.1236C25.606 25.7079 24.8723 26 24.1386 26C23.3315 26 22.5978 25.7079 22.0842 25.1236C21.5707 24.6124 21.2772 23.882 21.2772 23.1517C21.2772 22.4213 21.5707 21.691 22.0842 21.1067C22.5978 20.6685 23.4049 20.3034 24.1386 20.3034C24.8723 20.3034 25.606 20.5955 26.1196 21.1067C26.6332 21.691 27 22.4213 27 23.1517C27 23.882 26.6332 24.6124 26.1196 25.1236Z" fill="#232F43"/>
</svg>
